<?xml version="1.0" encoding="UTF-8"?>
<!DOCTYPE svg PUBLIC "-//W3C//DTD SVG 1.1//EN" "http://www.w3.org/Graphics/SVG/1.1/DTD/svg11.dtd">
<svg xmlns="http://www.w3.org/2000/svg" version="1.1" width="220px" height="220px" style="shape-rendering:geometricPrecision; text-rendering:geometricPrecision; image-rendering:optimizeQuality; fill-rule:evenodd; clip-rule:evenodd" xmlns:xlink="http://www.w3.org/1999/xlink">
<g><path style="opacity:0.821" fill="#282828" d="M 213.5,-0.5 C 214.833,-0.5 216.167,-0.5 217.5,-0.5C 217.833,0.5 218.5,1.16667 219.5,1.5C 219.5,3.16667 219.5,4.83333 219.5,6.5C 211.295,24.2015 203.795,41.8681 197,59.5C 195.758,60.8721 194.258,61.8721 192.5,62.5C 187.888,59.3916 183.722,55.725 180,51.5C 146.363,84.8037 112.696,118.137 79,151.5C 78,152.5 77,153.5 76,154.5C 76.4838,160.795 76.4838,167.129 76,173.5C 61.2956,188.703 46.7956,204.036 32.5,219.5C 31.5,219.5 30.5,219.5 29.5,219.5C 28.7817,210.518 28.4484,201.518 28.5,192.5C 19.8523,193.466 11.1856,193.632 2.5,193C 1.54943,192.282 1.38277,191.449 2,190.5C 16.384,174.905 30.884,159.405 45.5,144C 51.5,143.667 57.5,143.333 63.5,143C 98.2478,108.252 132.914,73.5855 167.5,39C 164.333,35.8333 161.167,32.6667 158,29.5C 157.506,27.8659 157.34,26.1992 157.5,24.5C 159.317,22.9904 161.317,21.6571 163.5,20.5C 180.476,14.0055 197.142,7.00554 213.5,-0.5 Z"/></g>
<g><path style="opacity:1" fill="#fbfbfb" d="M 213.5,3.5 C 214.552,3.35055 215.552,3.51722 216.5,4C 208.466,21.5652 201.133,39.3985 194.5,57.5C 193.127,57.6567 191.793,57.49 190.5,57C 187.5,54 184.5,51 181.5,48C 180.167,47.3333 178.833,47.3333 177.5,48C 143.442,83.3918 108.608,118.225 73,152.5C 72.6667,159.167 72.3333,165.833 72,172.5C 59,186.167 46,199.833 33,213.5C 32.6667,206.167 32.3333,198.833 32,191.5C 31.5,191 31,190.5 30.5,190C 23.1441,189.831 15.8108,189.331 8.5,188.5C 20.9835,174.849 33.6501,161.349 46.5,148C 52.9138,147.871 59.2472,147.204 65.5,146C 100.028,111.139 134.861,76.6387 170,42.5C 171.187,40.9556 171.52,39.2889 171,37.5C 167.5,34 164,30.5 160.5,27C 160.833,26.6667 161.167,26.3333 161.5,26C 178.893,18.3784 196.226,10.8784 213.5,3.5 Z"/></g>
<g><path style="opacity:0.008" fill="#222322" d="M 157.5,24.5 C 156.475,24.1034 156.308,23.4368 157,22.5C 157.464,23.0944 157.631,23.7611 157.5,24.5 Z"/></g>
<g><path style="opacity:0.008" fill="#222322" d="M 151.5,30.5 C 150.475,30.1034 150.308,29.4368 151,28.5C 151.464,29.0944 151.631,29.7611 151.5,30.5 Z"/></g>
<g><path style="opacity:0.004" fill="#222322" d="M 151.5,30.5 C 152.167,30.5 152.5,30.8333 152.5,31.5C 152.167,31.1667 151.833,30.8333 151.5,30.5 Z"/></g>
<g><path style="opacity:0.004" fill="#222322" d="M 152.5,31.5 C 153.833,32.1667 153.833,32.1667 152.5,31.5 Z"/></g>
<g><path style="opacity:0.004" fill="#222322" d="M 154.5,33.5 C 155.833,34.1667 155.833,34.1667 154.5,33.5 Z"/></g>
<g><path style="opacity:0.006" fill="#222322" d="M 158.5,36.5 C 156.775,36.1575 156.275,35.1575 157,33.5C 157.513,34.5266 158.013,35.5266 158.5,36.5 Z"/></g>
<g><path style="opacity:0.004" fill="#222322" d="M 158.5,36.5 C 159.525,36.8966 159.692,37.5632 159,38.5C 158.536,37.9056 158.369,37.2389 158.5,36.5 Z"/></g>
<g><path style="opacity:0.004" fill="#222322" d="M 160.5,38.5 C 161.525,38.8966 161.692,39.5632 161,40.5C 160.536,39.9056 160.369,39.2389 160.5,38.5 Z"/></g>
<g><path style="opacity:0.004" fill="#222322" d="M 162.5,40.5 C 163.833,41.1667 163.833,41.1667 162.5,40.5 Z"/></g>
<g><path style="opacity:0.004" fill="#222322" d="M 179.5,57.5 C 180.525,57.8966 180.692,58.5632 180,59.5C 179.536,58.9056 179.369,58.2389 179.5,57.5 Z"/></g>
<g><path style="opacity:0.004" fill="#222322" d="M 181.5,59.5 C 182.525,59.8966 182.692,60.5632 182,61.5C 181.536,60.9056 181.369,60.2389 181.5,59.5 Z"/></g>
<g><path style="opacity:0.004" fill="#222322" d="M 185.5,63.5 C 186.833,64.1667 186.833,64.1667 185.5,63.5 Z"/></g>
<g><path style="opacity:0.004" fill="#222322" d="M 187.5,65.5 C 188.833,66.1667 188.833,66.1667 187.5,65.5 Z"/></g>
<g><path style="opacity:0.012" fill="#222322" d="M -0.5,134.5 C 0.833333,135.167 0.833333,135.833 -0.5,136.5C -0.5,135.833 -0.5,135.167 -0.5,134.5 Z"/></g>
</svg>
