<?xml version="1.0" encoding="UTF-8"?>
<!DOCTYPE svg PUBLIC "-//W3C//DTD SVG 1.1//EN" "http://www.w3.org/Graphics/SVG/1.1/DTD/svg11.dtd">
<svg xmlns="http://www.w3.org/2000/svg" version="1.1" width="220px" height="220px" style="shape-rendering:geometricPrecision; text-rendering:geometricPrecision; image-rendering:optimizeQuality; fill-rule:evenodd; clip-rule:evenodd" xmlns:xlink="http://www.w3.org/1999/xlink">
<g><path style="opacity:0.932" fill="#fefffe" d="M 213.5,-0.5 C 214.833,-0.5 216.167,-0.5 217.5,-0.5C 217.833,0.5 218.5,1.16667 219.5,1.5C 219.5,3.16667 219.5,4.83333 219.5,6.5C 211.295,24.2015 203.795,41.8681 197,59.5C 194.847,62.3517 192.347,62.8517 189.5,61C 185.333,56.8333 181.167,52.6667 177,48.5C 175.26,49.7158 174.26,51.3825 174,53.5C 173.667,53.1667 173.333,52.8333 173,52.5C 140.748,84.7522 108.414,117.086 76,149.5C 76.2651,157.488 76.2651,165.488 76,173.5C 61.2956,188.703 46.7956,204.036 32.5,219.5C 31.5,219.5 30.5,219.5 29.5,219.5C 28.7817,210.518 28.4484,201.518 28.5,192.5C 19.8523,193.466 11.1856,193.632 2.5,193C 1.54943,192.282 1.38277,191.449 2,190.5C 16.384,174.905 30.884,159.405 45.5,144C 53.5,143.667 61.5,143.333 69.5,143C 103.221,109.279 136.887,75.6126 170.5,42C 166.333,37.8333 162.167,33.6667 158,29.5C 157.313,27.4325 157.48,25.4325 158.5,23.5C 176.879,15.4892 195.212,7.4892 213.5,-0.5 Z"/></g>
<g><path style="opacity:0.012" fill="#fefffe" d="M -0.5,134.5 C 0.833333,135.167 0.833333,135.833 -0.5,136.5C -0.5,135.833 -0.5,135.167 -0.5,134.5 Z"/></g>
</svg>
